 <svg version="1.0" xmlns="http://www.w3.org/2000/svg" width="700.000000pt" height="700.000000pt" viewBox="0 0 700.000000 700.000000" preserveAspectRatio="xMidYMid meet">
<metadata>
Created by potrace 1.12, written by Peter Selinger 2001-2015
</metadata>
<g transform="translate(0.000000,700.000000) scale(0.100000,-0.100000)" fill="#000000" stroke="none">
<path d="M2555 5850 c-3 -5 0 -13 8 -16 23 -9 122 0 122 11 0 14 -122 19 -130
5z"></path>
<path d="M2340 5699 c0 -5 5 -7 10 -4 6 3 10 8 10 11 0 2 -4 4 -10 4 -5 0 -10
-5 -10 -11z"></path>
<path d="M3195 5653 c-53 -10 -65 -14 -65 -23 0 -13 167 -13 175 0 9 15 -66
31 -110 23z"></path>
<path d="M2967 5593 c-13 -12 -7 -54 9 -60 19 -7 64 16 64 33 0 23 -57 44 -73
27z"></path>
<path d="M2250 5530 c-24 -47 -23 -98 2 -114 30 -18 43 7 40 77 -2 34 -7 66
-12 71 -5 5 -18 -10 -30 -34z"></path>
<path d="M3460 5506 c0 -9 5 -16 10 -16 6 0 10 4 10 9 0 6 -4 13 -10 16 -5 3
-10 -1 -10 -9z"></path>
<path d="M2055 5501 c-17 -8 -18 -10 -4 -16 24 -9 104 -2 104 10 0 13 -74 17
-100 6z"></path>
<path d="M1920 5420 c0 -5 5 -10 10 -10 6 0 10 5 10 10 0 6 -4 10 -10 10 -5 0
-10 -4 -10 -10z"></path>
<path d="M3515 5351 c-4 -33 -4 -65 0 -70 10 -17 75 -14 75 3 0 8 -4 17 -9 21
-5 3 -17 28 -26 55 -9 28 -20 50 -25 50 -4 0 -11 -27 -15 -59z"></path>
<path d="M1782 5303 c-53 -19 -46 -33 17 -33 47 0 71 12 71 37 0 16 -33 15
-88 -4z"></path>
<path d="M3660 5220 c0 -5 9 -10 21 -10 11 0 17 5 14 10 -3 6 -13 10 -21 10
-8 0 -14 -4 -14 -10z"></path>
<path d="M3737 5164 c-8 -8 3 -34 14 -34 11 0 12 27 0 34 -4 3 -11 3 -14 0z"></path>
<path d="M3806 5045 c-8 -21 -8 -63 1 -93 9 -34 23 -7 23 43 0 47 -14 76 -24
50z"></path>
<path d="M1496 5034 c-3 -9 -6 -35 -6 -59 0 -24 3 -50 6 -59 12 -32 24 -3 24
59 0 62 -12 91 -24 59z"></path>
<path d="M4289 5038 c-1 -1 -3 -430 -5 -953 -2 -522 -3 -955 -4 -962 0 -6 -12
-25 -26 -42 -26 -32 -24 -52 10 -81 12 -9 16 -33 16 -99 0 -84 -13 -130 -52
-183 -14 -19 -4 -77 27 -158 13 -35 18 -87 22 -225 2 -98 6 -181 9 -184 27
-27 40 139 43 540 1 186 3 190 75 203 21 4 55 16 75 27 20 10 50 19 67 19 41
0 94 18 120 42 12 10 37 23 57 29 20 5 55 25 77 44 23 19 46 35 51 35 10 0
171 162 211 213 15 19 36 55 47 81 11 25 24 46 29 46 11 0 28 39 38 85 4 17
18 55 33 85 26 54 26 58 26 275 0 213 -1 221 -24 265 -13 25 -30 78 -37 119
-8 46 -20 81 -33 95 -12 12 -27 43 -35 68 -7 25 -25 61 -39 79 -13 19 -28 45
-32 59 -4 14 -19 37 -33 52 -14 15 -35 43 -46 61 -45 72 -84 127 -112 156 -16
16 -40 44 -54 61 -14 18 -51 59 -82 92 -49 51 -60 59 -73 48 -8 -7 -15 -17
-15 -22 0 -5 31 -41 69 -81 108 -113 221 -252 221 -272 0 -6 9 -20 21 -31 12
-10 32 -41 46 -69 14 -27 31 -57 38 -65 8 -8 21 -37 30 -65 9 -27 26 -60 37
-71 11 -12 27 -53 37 -90 10 -38 28 -89 41 -114 23 -43 24 -54 24 -270 1 -224
1 -225 -25 -275 -15 -27 -34 -75 -42 -106 -9 -30 -26 -64 -37 -74 -11 -10 -20
-24 -20 -31 0 -20 -177 -215 -239 -264 -29 -23 -69 -48 -89 -57 -20 -8 -46
-23 -57 -34 -12 -10 -54 -27 -95 -37 -41 -11 -93 -29 -115 -41 -71 -38 -124
-23 -140 40 -3 14 -7 477 -8 1029 -2 792 -5 1004 -14 1008 -7 2 -14 2 -14 0z"></path>
<path d="M1630 4720 c0 -5 7 -10 15 -10 8 0 15 5 15 10 0 6 -7 10 -15 10 -8 0
-15 -4 -15 -10z"></path>
<path d="M1735 4661 c-13 -22 83 -32 315 -31 207 1 245 -1 266 -15 34 -22 39
-41 20 -70 -20 -30 -21 -55 -2 -55 8 0 19 15 25 33 12 34 73 90 116 107 14 5
103 10 196 10 132 0 170 3 167 13 -6 15 -1093 23 -1103 8z"></path>
<path d="M3103 4663 c-7 -2 -13 -10 -13 -17 0 -10 44 -12 193 -9 105 2 208 7
227 10 l35 7 -50 7 c-56 8 -373 10 -392 2z"></path>
<path d="M3036 4583 c-2 -10 -5 -368 -5 -796 -1 -808 -1 -817 -41 -838 -8 -4
-28 -11 -43 -14 -24 -5 -27 -8 -17 -20 7 -8 18 -15 26 -15 7 0 25 -10 39 -23
l27 -22 2 -341 c3 -347 6 -372 43 -399 8 -6 18 -39 23 -75 6 -44 15 -69 28
-80 11 -8 28 -31 37 -50 22 -44 99 -121 145 -145 19 -9 47 -28 61 -41 17 -16
47 -28 90 -36 35 -6 76 -20 91 -31 50 -37 233 -36 277 2 12 11 46 22 78 26 44
5 63 13 83 35 15 16 42 35 61 43 44 18 131 101 154 147 9 19 26 45 38 57 25
28 38 128 16 121 -8 -2 -24 -29 -36 -59 -12 -30 -31 -65 -43 -79 -11 -14 -41
-50 -66 -80 -25 -30 -56 -61 -69 -68 -14 -7 -29 -21 -34 -30 -6 -11 -33 -24
-67 -32 -31 -8 -69 -24 -85 -37 -19 -16 -39 -23 -70 -23 -48 1 -69 12 -88 49
l-13 23 -30 -36 c-26 -32 -35 -36 -77 -36 -35 0 -53 5 -66 20 -9 10 -43 27
-73 36 -72 20 -176 106 -228 187 -13 20 -28 37 -33 37 -4 0 -18 28 -31 63 -12
34 -29 70 -38 79 -11 13 -17 55 -23 150 -10 157 1 280 30 337 26 50 28 132 4
152 -29 25 -43 76 -43 162 0 64 4 88 16 97 32 27 36 49 16 78 -11 15 -25 45
-30 67 -7 26 -11 287 -11 740 0 385 -1 703 -1 708 0 14 -19 7 -24 -10z"></path>
<path d="M2271 4447 c-6 -8 -18 -33 -26 -58 -9 -24 -24 -53 -35 -64 -12 -13
-24 -53 -34 -112 -9 -51 -25 -110 -36 -131 -18 -35 -21 -60 -23 -213 -2 -158
0 -178 19 -219 12 -25 27 -70 34 -100 14 -62 25 -86 50 -115 10 -11 23 -36 29
-56 7 -20 21 -45 32 -55 12 -11 28 -32 36 -48 9 -16 38 -50 65 -75 28 -25 66
-61 84 -78 18 -18 38 -33 43 -33 6 0 26 -14 45 -30 18 -17 52 -37 74 -44 23
-8 54 -24 70 -36 33 -25 89 -39 150 -40 77 0 38 40 -59 60 -31 6 -71 22 -90
36 -19 13 -52 30 -74 36 -31 10 -72 44 -182 155 -79 78 -143 149 -143 157 0 8
-11 28 -24 44 -14 16 -32 59 -42 98 -9 38 -28 87 -43 108 -26 39 -26 40 -26
235 1 193 1 197 27 246 15 28 32 78 39 113 6 35 23 80 36 99 40 58 44 167 4
120z"></path>
<path d="M5361 3132 c-14 -4 -26 -13 -29 -20 -3 -9 17 -12 72 -12 67 0 100 10
79 23 -16 10 -99 16 -122 9z"></path>
<path d="M5213 3035 c-9 -25 2 -27 22 -5 17 18 17 20 1 20 -9 0 -19 -7 -23
-15z"></path>
<path d="M3400 2980 c-8 -5 -11 -12 -8 -16 10 -9 58 4 58 16 0 13 -30 13 -50
0z"></path>
<path d="M5827 2984 c-18 -18 -2 -24 64 -24 52 0 70 3 67 13 -5 13 -119 23
-131 11z"></path>
<path d="M3925 2970 c3 -5 10 -10 16 -10 5 0 9 5 9 10 0 6 -7 10 -16 10 -8 0
-12 -4 -9 -10z"></path>
<path d="M5693 2953 c-17 -6 -16 -38 1 -52 20 -16 46 -3 46 24 0 18 -22 40
-33 34 -1 0 -8 -3 -14 -6z"></path>
<path d="M5125 2901 c-19 -39 -30 -45 -89 -51 -70 -7 -73 -30 -4 -31 29 0 62
-4 73 -8 29 -12 51 3 59 40 7 35 -1 79 -15 79 -5 0 -15 -13 -24 -29z"></path>
<path d="M6032 2904 c2 -11 11 -20 22 -22 13 -3 17 1 14 14 -2 11 -11 20 -22
22 -13 3 -17 -1 -14 -14z"></path>
<path d="M4160 2786 c0 -8 5 -18 10 -21 6 -3 10 1 10 9 0 8 -4 18 -10 21 -5 3
-10 -1 -10 -9z"></path>
<path d="M6106 2757 c-8 -54 -1 -75 31 -83 43 -11 48 9 18 70 -15 31 -31 56
-35 56 -4 0 -11 -19 -14 -43z"></path>
<path d="M4808 2717 c-27 -11 -48 -24 -48 -29 0 -4 25 -8 55 -8 55 0 79 17 68
48 -6 16 -18 14 -75 -11z"></path>
<path d="M4645 2630 c-11 -17 5 -32 21 -19 7 6 11 15 8 20 -7 12 -21 11 -29
-1z"></path>
<path d="M6240 2626 c0 -17 27 -29 35 -16 4 6 3 15 0 20 -9 15 -35 12 -35 -4z"></path>
<path d="M4570 2490 c-11 -42 -2 -101 17 -107 15 -5 25 57 17 106 -8 52 -20
52 -34 1z"></path>
<path d="M6320 2445 c0 -62 11 -84 24 -49 14 37 4 114 -15 114 -5 0 -9 -29 -9
-65z"></path>
<path d="M6251 2286 c-10 -12 -6 -26 10 -26 11 0 19 29 10 35 -5 2 -14 -1 -20
-9z"></path>
<path d="M4650 2280 c0 -5 5 -10 10 -10 6 0 10 5 10 10 0 6 -4 10 -10 10 -5 0
-10 -4 -10 -10z"></path>
<path d="M4820 2223 c-57 -5 -72 -19 -34 -30 37 -10 550 -11 560 0 24 23 -26
30 -248 32 -128 1 -253 0 -278 -2z"></path>
<path d="M5943 2223 c-72 -3 -93 -7 -93 -18 0 -8 15 -17 36 -21 53 -10 253 1
266 14 6 6 10 13 7 16 -8 7 -125 12 -216 9z"></path>
<path d="M5647 2214 c-4 -4 -7 -11 -7 -16 0 -13 50 -6 53 7 2 12 -36 19 -46 9z"></path>
</g>
</svg>