<?xml version="1.0" standalone="no"?>
<!DOCTYPE svg PUBLIC "-//W3C//DTD SVG 20010904//EN"
 "http://www.w3.org/TR/2001/REC-SVG-20010904/DTD/svg10.dtd">
<svg version="1.0" xmlns="http://www.w3.org/2000/svg"
 width="300.000000pt" height="297.000000pt" viewBox="0 0 300.000000 297.000000"
 preserveAspectRatio="xMidYMid meet">
<metadata>
Created by potrace 1.10, written by Peter Selinger 2001-2011
</metadata>
<g transform="translate(0.000000,297.000000) scale(0.100000,-0.100000)"
fill="#000000" stroke="none">
<path d="M21 2954 c0 -11 3 -14 6 -6 3 7 2 16 -1 19 -3 4 -6 -2 -5 -13z"/>
<path d="M51 2958 c0 -7 4 -33 8 -58 5 -25 23 -137 40 -250 60 -390 72 -466
100 -645 16 -99 34 -218 40 -265 13 -95 23 -160 46 -299 8 -52 15 -111 15
-131 0 -20 4 -50 10 -66 5 -16 16 -81 24 -144 9 -63 25 -176 35 -250 30 -198
30 -220 1 -239 -12 -9 -39 -33 -59 -54 -20 -20 -42 -37 -49 -37 -6 0 -12 -4
-12 -10 0 -5 -11 -12 -25 -16 -14 -3 -25 -10 -25 -15 0 -4 -45 -31 -100 -59
-55 -29 -100 -56 -100 -61 0 -5 7 -6 18 0 9 5 35 17 57 27 22 11 42 22 45 25
12 14 66 36 79 31 9 -3 11 0 6 8 -5 9 -2 10 14 5 16 -5 20 -3 15 9 -4 9 -1 16
6 16 7 0 26 10 43 22 18 13 39 22 47 20 13 -2 13 -1 1 7 -12 8 -12 12 -2 25 8
9 19 16 25 16 7 0 22 10 34 23 28 30 29 81 1 262 -11 75 -18 144 -14 153 3 8
1 18 -5 22 -6 4 -13 29 -15 56 -2 27 -10 76 -16 109 -7 33 -13 83 -15 110 -1
28 -9 89 -18 136 -8 48 -20 124 -26 170 -5 46 -12 95 -15 109 -3 14 -8 45 -11
70 -7 56 -10 74 -18 125 -12 80 -18 121 -20 150 -2 17 -6 39 -9 50 -8 26 -57
363 -56 390 0 11 -8 65 -19 120 -25 131 -37 215 -34 243 2 15 -1 21 -7 17 -7
-4 -10 6 -7 27 4 40 -2 58 -20 58 -8 0 -14 -6 -13 -12z"/>
<path d="M874 2953 c2 -9 8 -19 14 -21 6 -2 8 5 5 17 -6 25 -22 28 -19 4z"/>
<path d="M2600 2953 c-1 -22 -18 -148 -26 -188 -3 -16 -6 -38 -7 -47 -1 -10
-4 -18 -8 -18 -4 0 -9 -9 -12 -20 -3 -13 -1 -18 6 -13 6 4 8 0 4 -10 -4 -10
-9 -39 -12 -65 -3 -26 -10 -67 -15 -92 -6 -25 -17 -90 -26 -145 -23 -148 -26
-159 -36 -172 -14 -18 -57 5 -65 35 -10 42 -41 65 -79 59 -18 -3 -36 -1 -39 4
-4 5 -12 9 -18 9 -9 0 -9 -2 1 -8 9 -6 6 -14 -12 -31 -23 -22 -24 -22 -37 -3
-12 16 -25 19 -72 17 -38 -1 -65 -7 -78 -18 -22 -19 -39 -22 -39 -7 0 17 -43
60 -61 60 -9 0 -24 -11 -33 -25 -20 -30 -20 -30 0 -50 17 -16 12 -51 -6 -40
-5 3 -10 2 -10 -3 0 -24 36 -17 130 24 104 45 160 55 160 30 0 -8 -16 -16 -42
-20 -23 -4 -70 -20 -105 -36 -36 -17 -66 -30 -68 -30 -19 0 -55 -22 -50 -30 5
-8 11 -8 19 -1 7 6 22 9 34 6 12 -2 22 1 22 7 0 6 3 8 7 5 3 -4 12 -2 19 4 20
16 32 3 31 -34 -1 -22 -9 -35 -23 -41 -21 -9 -21 -10 7 -34 16 -13 29 -30 29
-37 0 -17 49 -123 61 -130 5 -4 9 -18 9 -33 0 -26 -3 -24 -50 28 -27 30 -49
58 -50 62 -1 21 -43 118 -51 118 -11 0 -1 -50 12 -65 5 -5 9 -15 9 -23 0 -8
23 -43 50 -78 28 -35 60 -84 72 -109 12 -25 26 -45 31 -45 4 0 5 -5 2 -10 -7
-11 53 -70 70 -70 60 2 335 110 335 132 0 4 8 8 18 9 14 0 14 2 -3 9 -14 6
-16 9 -5 10 8 2 19 2 23 1 5 -1 6 3 3 8 -11 18 12 21 25 4 12 -14 12 -16 -1
-8 -13 8 -13 7 0 -11 8 -10 19 -22 24 -26 16 -11 -42 -87 -82 -108 -80 -42
-148 -72 -172 -77 -14 -2 -39 -9 -57 -15 -37 -13 -113 6 -113 29 0 7 -4 13
-10 13 -5 0 -10 8 -11 18 0 9 -3 12 -5 5 -3 -7 -1 -20 4 -30 11 -20 5 -43 -10
-43 -6 0 -8 6 -5 14 5 11 -3 13 -36 10 -23 -2 -60 -9 -82 -15 -23 -6 -45 -9
-50 -8 -15 4 -59 -12 -67 -25 -5 -8 -13 -7 -29 2 -11 7 -24 10 -27 6 -4 -4 -1
-9 6 -11 8 -3 2 -16 -18 -37 -68 -71 -74 -132 -24 -226 13 -25 24 -49 24 -54
0 -5 14 -22 30 -38 17 -15 30 -31 30 -35 0 -3 8 -16 18 -27 16 -20 16 -20 0
-7 -13 9 -18 10 -18 2 0 -6 6 -14 13 -17 7 -2 24 -22 37 -44 14 -22 30 -40 37
-40 7 0 10 -7 7 -17 -5 -15 -4 -15 4 -4 8 12 14 12 25 3 7 -7 16 -10 18 -8 2
2 16 6 30 10 24 5 29 2 42 -32 9 -21 29 -49 46 -63 17 -13 31 -29 31 -35 0 -7
6 -14 13 -17 8 -3 11 -20 9 -51 -2 -25 -8 -43 -13 -40 -14 8 -11 0 17 -50 26
-46 67 -86 89 -86 6 0 20 -9 30 -20 10 -11 21 -18 25 -15 4 2 8 -17 10 -43 1
-26 3 -56 4 -68 0 -12 9 -32 20 -46 25 -33 156 -170 181 -188 21 -16 -62 85
-92 111 -20 18 -55 58 -67 78 -7 10 -4 11 13 2 29 -16 147 -17 165 -2 8 7 20
10 26 6 6 -4 -1 17 -17 46 -15 30 -29 57 -31 62 -2 4 3 7 10 7 28 0 50 27 54
66 11 111 64 252 105 277 10 6 19 17 19 24 0 7 9 17 19 23 11 5 22 18 25 28 7
21 57 24 64 5 2 -7 -3 -13 -11 -13 -8 0 -18 -7 -21 -16 -3 -9 -13 -14 -20 -11
-12 5 -26 -11 -26 -28 0 -7 46 9 55 20 6 7 19 15 30 19 12 3 3 -9 -22 -32 -62
-54 -53 -71 10 -20 57 47 67 58 67 73 0 6 -4 3 -10 -5 -5 -8 -12 -11 -16 -7
-4 3 -1 14 7 23 17 21 20 45 8 60 -7 8 -6 14 1 19 5 3 10 12 10 20 0 24 -101
-38 -162 -100 -92 -94 -146 -218 -153 -355 -3 -53 -13 -59 -45 -25 -13 14 -29
25 -36 25 -15 0 -95 66 -88 73 4 4 -29 33 -81 69 -5 4 -29 23 -52 44 -24 20
-43 30 -43 23 0 -15 80 -91 133 -125 20 -13 37 -29 37 -35 0 -6 16 -29 35 -52
19 -22 35 -44 35 -49 0 -4 18 -31 40 -60 22 -29 40 -57 40 -61 0 -7 -134 -4
-180 5 -11 2 -16 19 -18 63 -2 50 1 65 18 85 30 35 25 57 -6 25 -21 -21 -47
-19 -69 5 -10 11 -24 20 -30 20 -7 0 -23 9 -37 20 -20 15 -26 31 -32 82 -5 53
-4 65 11 76 16 12 16 13 -5 18 -12 4 -22 12 -22 19 0 8 -18 29 -40 48 -24 20
-45 49 -51 68 -15 56 -24 65 -44 46 -35 -35 -70 -17 -116 58 -19 31 -51 78
-72 103 -41 51 -84 137 -87 174 -5 52 2 70 39 107 30 30 57 45 113 62 66 19
86 21 208 15 119 -6 142 -5 191 12 101 35 218 105 257 153 21 25 22 32 12 68
-6 23 -19 45 -30 51 -10 5 -21 23 -25 39 -3 15 -15 38 -25 49 -11 12 -20 24
-20 26 0 3 -15 26 -34 51 -19 24 -37 59 -41 77 -4 18 -13 41 -21 52 -7 10 -11
23 -8 30 2 6 6 31 8 56 4 34 87 542 121 733 3 19 0 27 -10 27 -8 0 -15 -8 -15
-17z m-609 -680 c10 -67 9 -73 -14 -72 -17 1 -18 2 -4 6 21 5 23 23 3 23 -19
0 -29 17 -22 35 6 15 35 21 37 8z m363 -19 c9 -3 16 -11 16 -17 0 -6 7 -19 16
-28 16 -17 15 -19 -12 -29 -16 -6 -78 -32 -137 -57 -85 -36 -111 -53 -123 -75
-8 -15 -17 -28 -20 -28 -3 0 -3 4 1 9 3 5 -4 13 -16 16 -21 7 -21 8 9 32 27
21 30 27 19 44 -12 20 -1 54 19 54 5 1 19 6 32 13 25 14 42 9 42 -14 0 -17 8
-17 40 1 14 7 37 11 51 8 34 -7 58 21 41 48 -19 30 -13 36 22 23z m-36 -28 c6
-28 -11 -38 -43 -26 -27 10 -27 11 -9 31 21 23 47 21 52 -5z m145 -80 c8 -8
27 -52 43 -97 20 -57 34 -84 47 -87 17 -4 67 -96 67 -122 0 -19 -38 -10 -53
13 -13 18 -16 19 -16 5 -1 -9 4 -20 9 -23 18 -11 11 -33 -12 -40 -24 -7 -202
-81 -228 -95 -9 -4 -35 -11 -58 -15 -33 -5 -42 -4 -42 7 0 8 -10 35 -23 60
-19 38 -21 49 -11 63 13 17 8 38 -26 120 -25 58 -33 96 -24 105 15 15 267 119
291 120 12 0 28 -6 36 -14z m499 -1131 c29 -24 29 -25 6 -25 -29 1 -62 25 -53
39 9 15 13 14 47 -14z m-347 -441 c11 -17 12 -25 4 -22 -6 2 -16 14 -20 26
-11 29 -5 28 16 -4z"/>
<path d="M2154 2141 c12 -11 21 -12 38 -4 21 9 20 10 -15 15 -33 3 -36 2 -23
-11z"/>
<path d="M2335 2062 c-22 -9 -41 -19 -43 -24 -2 -4 -12 -8 -22 -8 -9 0 -23 -7
-30 -15 -18 -22 -1 -18 49 11 25 13 64 28 88 31 24 3 43 9 43 13 0 13 -44 8
-85 -8z"/>
<path d="M2443 2007 c12 -24 24 -36 25 -29 5 18 -17 59 -34 66 -8 3 -5 -11 9
-37z"/>
<path d="M2328 1999 c-10 -5 -18 -17 -18 -26 0 -15 1 -15 13 1 12 17 14 17 37
-3 26 -21 24 -23 -22 -25 -39 -1 -39 -20 -1 -24 25 -3 35 2 49 24 18 26 17 27
-5 45 -27 22 -30 22 -53 8z"/>
<path d="M2221 1957 c0 -15 3 -35 8 -45 11 -20 23 -53 26 -67 0 -5 5 -22 9
-36 l7 -26 52 14 c28 7 60 13 71 13 10 0 32 13 47 30 16 16 43 34 61 39 18 5
26 10 16 10 -9 1 -18 6 -20 13 -3 9 -13 9 -39 2 -29 -9 -34 -14 -31 -37 2 -23
-2 -27 -33 -33 -19 -3 -37 -9 -40 -13 -7 -12 -73 0 -79 15 -4 10 6 16 34 20
22 4 40 11 40 16 0 6 -12 8 -27 5 -64 -13 -67 -12 -71 8 -2 11 -7 29 -12 40
-5 11 -11 29 -13 40 -3 14 -5 12 -6 -8z"/>
<path d="M2560 1903 c0 -14 19 -38 25 -32 8 8 -5 39 -16 39 -5 0 -9 -3 -9 -7z"/>
<path d="M2370 1880 c-8 -5 -12 -11 -9 -14 3 -3 14 1 25 9 21 16 8 20 -16 5z"/>
<path d="M2236 1774 c-11 -7 -17 -16 -15 -19 3 -3 14 2 25 9 10 8 17 17 14 19
-3 3 -14 -1 -24 -9z"/>
<path d="M2240 1731 c0 -6 5 -13 10 -16 6 -3 10 1 10 9 0 9 -4 16 -10 16 -5 0
-10 -4 -10 -9z"/>
<path d="M2872 2930 c0 -14 2 -19 5 -12 2 6 2 18 0 25 -3 6 -5 1 -5 -13z"/>
<path d="M31 2914 c0 -11 3 -14 6 -6 3 7 2 16 -1 19 -3 4 -6 -2 -5 -13z"/>
<path d="M925 2900 c3 -5 8 -10 11 -10 2 0 4 5 4 10 0 6 -5 10 -11 10 -5 0 -7
-4 -4 -10z"/>
<path d="M2847 2827 c-4 -10 -7 -28 -7 -40 1 -20 2 -20 11 -4 6 10 9 28 7 40
-3 20 -4 20 -11 4z"/>
<path d="M1952 2770 c0 -14 2 -19 5 -12 2 6 2 18 0 25 -3 6 -5 1 -5 -13z"/>
<path d="M1150 2760 c0 -3 -15 -6 -33 -8 -17 -1 -39 -4 -47 -5 -8 -2 -50 -9
-92 -17 -71 -11 -81 -16 -130 -62 -29 -28 -60 -64 -68 -81 -19 -40 -34 -43
-48 -13 -12 28 -83 49 -90 27 -2 -6 -8 -9 -13 -5 -5 3 -9 0 -9 -6 0 -6 -9 -23
-19 -38 -23 -32 -33 -126 -17 -162 6 -14 24 -37 39 -53 31 -31 32 -32 42 -137
9 -95 32 -135 86 -151 21 -7 39 -16 39 -20 0 -5 7 -6 14 -3 23 9 52 -26 65
-78 6 -26 10 -51 9 -55 0 -5 2 -16 6 -25 10 -21 -11 -162 -24 -166 -6 -2 -10
-10 -10 -18 0 -9 -4 -12 -10 -9 -5 3 -10 -1 -10 -10 0 -9 -9 -28 -20 -42 -11
-14 -20 -31 -20 -38 0 -7 -8 -23 -18 -36 -11 -13 -22 -37 -26 -52 -4 -15 -11
-25 -16 -22 -6 4 -10 -6 -10 -22 0 -32 41 -166 52 -171 12 -5 10 -36 -3 -49
-6 -6 -12 -34 -12 -61 -2 -41 3 -55 22 -76 14 -14 30 -26 38 -26 7 0 13 -5 13
-12 0 -9 3 -9 12 0 15 15 42 16 33 1 -7 -11 32 9 50 26 13 12 35 79 40 120 1
17 7 29 12 28 5 -1 10 17 10 40 0 23 1 56 2 72 2 26 3 27 11 10 8 -20 9 -20 9
0 1 21 57 75 79 75 6 0 12 4 12 9 0 13 119 42 191 46 51 3 72 0 97 -15 36 -22
75 -78 67 -97 -2 -7 0 -15 5 -18 6 -4 10 -14 10 -23 0 -19 78 -102 97 -102 7
0 13 -4 13 -10 0 -5 17 -12 38 -16 20 -4 43 -12 51 -18 9 -7 12 -7 9 -1 -8 13
-1 23 29 48 21 18 22 18 42 -2 15 -15 21 -17 21 -7 0 8 -7 16 -15 20 -8 3 -12
12 -9 20 3 8 1 17 -5 20 -6 4 -8 12 -5 19 2 7 -14 29 -36 49 l-40 37 0 83 c1
88 -3 121 -22 178 -7 19 -11 42 -9 50 2 8 0 12 -4 8 -4 -4 -27 10 -52 31 -24
22 -59 46 -78 55 -19 10 -35 19 -35 22 0 3 5 2 12 -2 7 -4 8 -3 4 4 -4 6 -13
9 -21 6 -15 -6 -39 31 -30 46 3 6 2 10 -4 10 -5 0 -9 21 -8 48 2 53 15 60 59
30 14 -10 31 -18 37 -18 12 0 52 -21 61 -31 6 -7 52 -19 62 -16 8 2 42 -41 51
-65 3 -9 21 -21 39 -26 18 -6 41 -13 51 -17 14 -6 16 -4 10 11 -4 12 -3 15 5
10 7 -4 12 -2 12 3 0 6 -20 11 -45 11 -40 0 -46 3 -62 33 -9 17 -17 41 -17 51
-1 11 -8 21 -16 24 -13 5 -13 3 -1 -11 18 -22 0 -22 -41 1 -18 10 -53 26 -77
36 -25 9 -57 26 -73 37 -15 11 -38 19 -51 17 -20 -3 -22 -10 -25 -63 -5 -95 3
-118 49 -146 174 -105 195 -138 192 -307 l-1 -112 44 -37 c49 -40 51 -58 9
-102 -22 -23 -27 -24 -63 -13 -22 7 -60 31 -85 54 -39 37 -47 52 -58 105 -9
44 -19 64 -33 72 -12 6 -32 20 -46 31 -40 32 -112 36 -200 10 -100 -29 -130
-44 -180 -85 -23 -19 -45 -35 -49 -35 -3 0 -8 -30 -9 -67 -2 -37 -7 -72 -11
-78 -4 -5 -14 -36 -21 -68 -7 -31 -19 -62 -27 -68 -17 -15 -103 -5 -114 12
-14 22 -10 83 7 124 15 37 15 39 -15 95 -17 32 -31 73 -31 91 0 33 64 162 122
246 49 73 55 162 17 295 -17 59 -40 81 -103 101 -30 10 -60 25 -67 34 -17 19
-37 112 -38 170 -1 40 -32 93 -68 116 -20 12 -18 147 2 147 8 0 15 9 15 20 0
20 27 40 54 40 14 0 22 -13 68 -102 23 -47 32 -48 25 -5 -7 49 19 107 68 153
25 23 45 46 45 51 0 10 67 27 160 39 30 4 57 8 60 9 3 1 26 5 53 9 57 10 70
23 22 22 -19 -1 -35 -3 -35 -6z"/>
<path d="M1225 2750 c-4 -6 2 -20 15 -32 28 -27 34 -19 11 16 -12 19 -21 24
-26 16z"/>
<path d="M2701 2734 c0 -11 3 -14 6 -6 3 7 2 16 -1 19 -3 4 -6 -2 -5 -13z"/>
<path d="M2827 2723 c-10 -10 -8 -45 2 -39 11 7 21 46 12 46 -4 0 -11 -3 -14
-7z"/>
<path d="M1108 2703 c7 -3 16 -2 19 1 4 3 -2 6 -13 5 -11 0 -14 -3 -6 -6z"/>
<path d="M1168 2703 c6 -2 18 -2 25 0 6 3 1 5 -13 5 -14 0 -19 -2 -12 -5z"/>
<path d="M1090 2675 c7 -8 17 -15 22 -15 6 0 5 7 -2 15 -7 8 -17 15 -22 15 -6
0 -5 -7 2 -15z"/>
<path d="M935 2660 c-16 -7 -17 -9 -3 -9 9 -1 20 4 23 9 7 11 7 11 -20 0z"/>
<path d="M2815 2660 c-3 -5 -2 -17 3 -26 8 -14 10 -12 14 10 5 26 -5 35 -17
16z"/>
<path d="M877 2596 c-9 -7 -17 -19 -17 -25 0 -6 10 -3 22 9 25 23 22 35 -5 16z"/>
<path d="M915 2600 c-3 -6 1 -7 9 -4 18 7 21 14 7 14 -6 0 -13 -4 -16 -10z"/>
<path d="M2801 2594 c0 -11 3 -14 6 -6 3 7 2 16 -1 19 -3 4 -6 -2 -5 -13z"/>
<path d="M1157 2593 c-10 -9 -9 -23 1 -23 5 0 9 7 9 15 0 17 -1 18 -10 8z"/>
<path d="M1182 2560 c0 -14 2 -19 5 -12 2 6 2 18 0 25 -3 6 -5 1 -5 -13z"/>
<path d="M817 2546 c-16 -23 -16 -27 -3 -32 11 -4 14 -15 10 -39 -6 -37 11
-57 21 -25 8 26 -4 82 -16 74 -5 -3 -9 -1 -9 5 0 5 5 11 12 13 6 2 9 10 7 17
-3 9 -11 5 -22 -13z"/>
<path d="M667 2553 c-4 -3 -2 -15 4 -26 8 -14 8 -18 0 -13 -6 4 -11 2 -11 -3
0 -6 7 -11 15 -11 7 0 19 -8 24 -17 10 -17 10 -17 11 -1 0 9 -4 20 -10 23 -5
3 -10 15 -10 25 0 20 -13 33 -23 23z"/>
<path d="M1025 2549 c-4 -6 -5 -13 -2 -16 7 -7 27 6 27 18 0 12 -17 12 -25 -2z"/>
<path d="M2802 2540 c0 -14 2 -19 5 -12 2 6 2 18 0 25 -3 6 -5 1 -5 -13z"/>
<path d="M1320 2535 c0 -8 5 -15 10 -15 6 0 10 7 10 15 0 8 -4 15 -10 15 -5 0
-10 -7 -10 -15z"/>
<path d="M91 2504 c0 -11 3 -14 6 -6 3 7 2 16 -1 19 -3 4 -6 -2 -5 -13z"/>
<path d="M636 2488 c8 -28 12 -33 20 -25 9 8 -6 47 -17 47 -6 0 -7 -10 -3 -22z"/>
<path d="M967 2503 c-4 -3 -7 -16 -6 -27 0 -19 1 -19 10 3 10 24 8 36 -4 24z"/>
<path d="M1207 2490 c-3 -11 -2 -20 3 -20 12 0 21 28 11 35 -5 2 -11 -4 -14
-15z"/>
<path d="M1032 2480 c-19 -10 -28 -20 -20 -22 7 -3 19 1 26 9 8 7 18 11 23 8
5 -4 9 1 9 9 0 9 -1 15 -2 15 -2 -1 -18 -9 -36 -19z"/>
<path d="M900 2475 c0 -8 4 -15 10 -15 5 0 7 7 4 15 -4 8 -8 15 -10 15 -2 0
-4 -7 -4 -15z"/>
<path d="M2782 2470 c0 -14 2 -19 5 -12 2 6 2 18 0 25 -3 6 -5 1 -5 -13z"/>
<path d="M1176 2455 c2 -14 0 -25 -6 -25 -5 0 -10 -7 -10 -15 0 -13 3 -13 19
1 11 10 16 24 14 35 -8 29 -22 33 -17 4z"/>
<path d="M701 2445 c-1 -21 14 -34 29 -25 13 8 13 10 -2 10 -9 0 -19 6 -21 13
-3 6 -6 8 -6 2z"/>
<path d="M1010 2431 c0 -5 7 -11 15 -15 9 -3 12 -12 9 -23 -5 -16 -4 -16 10 1
12 14 13 23 5 33 -13 15 -39 18 -39 4z"/>
<path d="M2290 2436 c0 -2 7 -7 16 -10 8 -3 12 -2 9 4 -6 10 -25 14 -25 6z"/>
<path d="M1110 2426 c0 -9 30 -14 35 -6 4 6 -3 10 -14 10 -12 0 -21 -2 -21 -4z"/>
<path d="M630 2409 c0 -5 5 -7 10 -4 6 3 10 8 10 11 0 2 -4 4 -10 4 -5 0 -10
-5 -10 -11z"/>
<path d="M815 2409 c-4 -6 -5 -13 -2 -15 3 -3 1 -19 -3 -35 -5 -17 -5 -29 1
-29 5 0 9 5 9 11 0 6 9 8 22 3 20 -6 21 -5 9 10 -7 9 -10 16 -6 16 4 0 2 7 -5
15 -6 8 -9 19 -5 25 3 5 2 10 -4 10 -5 0 -13 -5 -16 -11z"/>
<path d="M1080 2405 c7 -8 17 -12 22 -9 6 4 5 10 -3 15 -22 14 -33 10 -19 -6z"/>
<path d="M1313 2370 c-3 -55 11 -86 42 -94 15 -4 45 -25 68 -48 23 -22 67 -52
97 -67 65 -31 89 -48 176 -120 35 -29 64 -59 64 -67 0 -7 15 -20 33 -29 53
-25 66 -74 30 -117 -13 -15 -13 -16 8 -11 18 5 21 3 16 -10 -3 -9 -2 -19 2
-22 5 -2 11 11 13 29 2 19 0 32 -4 30 -4 -3 -5 8 -2 25 5 21 0 38 -15 59 -11
17 -21 35 -21 42 0 6 -4 9 -10 5 -9 -6 -42 25 -95 90 -16 20 -43 43 -60 52
-16 9 -38 24 -48 34 -10 11 -27 19 -37 19 -11 0 -20 5 -20 10 0 6 -7 10 -15
10 -24 0 -66 31 -58 44 3 6 3 8 -2 4 -11 -10 -45 10 -45 27 0 8 -7 15 -17 15
-9 0 -31 12 -50 26 -25 19 -34 33 -33 53 3 38 1 51 -7 51 -5 0 -9 -18 -10 -40z"/>
<path d="M950 2385 c0 -5 5 -17 10 -25 5 -8 10 -10 10 -5 0 6 -5 17 -10 25 -5
8 -10 11 -10 5z"/>
<path d="M2762 2355 c0 -16 2 -22 5 -12 2 9 2 23 0 30 -3 6 -5 -1 -5 -18z"/>
<path d="M2561 2354 c0 -11 3 -14 6 -6 3 7 2 16 -1 19 -3 4 -6 -2 -5 -13z"/>
<path d="M836 2321 c-4 -7 -5 -15 -2 -18 9 -9 19 4 14 18 -4 11 -6 11 -12 0z"/>
<path d="M868 2323 c7 -3 16 -2 19 1 4 3 -2 6 -13 5 -11 0 -14 -3 -6 -6z"/>
<path d="M784 2270 c3 -28 1 -48 -4 -45 -4 3 -14 -3 -21 -12 -12 -15 -12 -16
4 -10 11 4 16 3 12 -3 -8 -13 -42 -13 -49 -1 -4 5 0 12 6 14 10 4 10 6 1 6 -7
1 -13 9 -13 18 0 12 -3 14 -11 6 -15 -15 18 -83 41 -83 30 0 70 39 70 69 0 35
-19 91 -31 91 -5 0 -7 -23 -5 -50z"/>
<path d="M916 2288 c0 -16 8 -38 17 -49 9 -10 14 -25 11 -33 -3 -7 2 -16 10
-19 11 -4 13 -1 9 10 -5 12 -2 15 10 10 21 -8 21 -3 1 28 -9 14 -20 22 -25 19
-5 -3 -9 0 -9 5 0 6 4 11 10 11 6 0 6 9 -1 23 -15 33 -34 29 -33 -5z"/>
<path d="M1280 2311 c0 -5 5 -13 10 -16 6 -3 10 -2 10 4 0 5 -4 13 -10 16 -5
3 -10 2 -10 -4z"/>
<path d="M2550 2304 c0 -8 5 -12 10 -9 6 4 8 11 5 16 -9 14 -15 11 -15 -7z"/>
<path d="M866 2274 c-3 -8 -10 -12 -16 -9 -16 10 -12 -12 6 -30 15 -15 18 -15
35 1 14 13 16 21 8 35 -12 23 -25 24 -33 3z"/>
<path d="M1300 2268 c0 -9 -6 -21 -14 -25 -12 -7 -11 -12 5 -32 14 -17 19 -19
19 -7 0 9 5 16 11 16 7 0 9 -10 5 -25 -4 -14 -3 -25 1 -25 8 0 33 -70 33 -92
0 -6 8 -20 17 -30 10 -11 13 -18 8 -17 -6 1 -26 -5 -45 -13 -28 -13 -31 -17
-13 -17 26 -1 83 30 81 44 -1 6 8 31 20 57 25 53 26 58 13 58 -12 0 -41 -58
-41 -82 0 -20 -20 -26 -21 -5 0 6 -3 21 -6 32 -3 11 -7 38 -10 60 -3 22 -13
49 -23 60 -9 11 -22 29 -28 40 -10 17 -11 17 -12 3z m10 -38 c0 -5 -2 -10 -4
-10 -3 0 -8 5 -11 10 -3 6 -1 10 4 10 6 0 11 -4 11 -10z"/>
<path d="M730 2260 c0 -5 5 -10 11 -10 5 0 7 5 4 10 -3 6 -8 10 -11 10 -2 0
-4 -4 -4 -10z"/>
<path d="M2546 2253 c-6 -14 -5 -15 5 -6 7 7 10 15 7 18 -3 3 -9 -2 -12 -12z"/>
<path d="M1230 2205 c-11 -13 -8 -15 14 -15 16 0 26 5 26 15 0 8 -6 15 -14 15
-7 0 -19 -7 -26 -15z"/>
<path d="M840 2193 c0 -28 -37 -73 -61 -73 -10 0 -19 -4 -19 -10 0 -13 6 -13
45 6 37 17 63 70 45 88 -7 7 -10 3 -10 -11z"/>
<path d="M896 2184 c11 -39 6 -107 -9 -131 -13 -20 15 -27 30 -7 12 16 12 20
-1 29 -10 8 -12 16 -5 26 14 23 10 85 -7 100 -13 11 -14 9 -8 -17z"/>
<path d="M2520 2198 c1 -25 40 -59 84 -74 50 -17 84 -62 81 -104 -3 -33 14
-65 26 -53 6 6 2 33 -11 74 -23 70 -51 98 -99 102 -23 2 -32 9 -42 35 -12 31
-39 45 -39 20z"/>
<path d="M1143 2193 c4 -6 -9 -18 -28 -27 -37 -18 -40 -41 -3 -27 30 11 53 47
37 57 -7 4 -10 3 -6 -3z"/>
<path d="M990 2157 c0 -21 4 -36 8 -33 4 3 19 -15 32 -40 23 -40 49 -63 37
-30 -7 18 3 28 17 17 6 -5 32 -11 57 -15 35 -5 50 -3 62 8 8 8 17 12 20 9 7
-7 57 38 57 51 0 5 7 17 16 27 25 27 -1 32 -27 4 -13 -13 -25 -29 -25 -34 -3
-24 -6 -25 -14 -6 -8 18 -9 18 -9 2 -1 -14 -6 -17 -21 -12 -14 5 -20 2 -20 -9
0 -13 -9 -15 -52 -10 -29 3 -60 5 -70 5 -9 0 -19 8 -22 17 -4 9 -16 33 -26 52
l-20 35 0 -38z"/>
<path d="M868 2153 c-3 -16 -8 -37 -12 -48 -8 -20 -7 -20 8 -1 9 11 16 32 16
48 0 36 -6 36 -12 1z"/>
<path d="M941 2144 c0 -11 3 -14 6 -6 3 7 2 16 -1 19 -3 4 -6 -2 -5 -13z"/>
<path d="M72 2115 c0 -16 2 -22 5 -12 2 9 2 23 0 30 -3 6 -5 -1 -5 -18z"/>
<path d="M1493 2112 c-3 -12 -9 -20 -13 -17 -12 7 -42 -57 -32 -67 5 -5 21 14
36 42 16 28 25 54 22 58 -4 3 -9 -4 -13 -16z"/>
<path d="M1120 2100 c0 -5 7 -7 15 -4 8 4 15 8 15 10 0 2 -7 4 -15 4 -8 0 -15
-4 -15 -10z"/>
<path d="M1310 2103 c0 -5 4 -15 10 -23 11 -18 25 -7 17 15 -6 15 -27 21 -27
8z"/>
<path d="M968 2081 c-17 -17 -17 -18 11 -18 26 0 29 3 20 19 -11 21 -10 21
-31 -1z"/>
<path d="M1537 2077 c-18 -27 -32 -87 -20 -87 9 0 29 41 39 83 8 33 1 35 -19
4z"/>
<path d="M1252 2055 c-27 -31 -29 -49 -3 -33 17 11 35 47 27 55 -1 2 -12 -8
-24 -22z"/>
<path d="M1587 2027 c-19 -23 -23 -57 -7 -57 6 0 10 7 10 16 0 9 8 23 18 30
11 8 14 16 7 23 -7 7 -16 3 -28 -12z"/>
<path d="M1112 2020 c7 -11 18 -20 25 -20 17 0 16 5 -3 24 -22 23 -37 20 -22
-4z"/>
<path d="M916 2011 c-14 -5 -16 -10 -8 -15 7 -4 17 -4 22 -1 6 4 22 0 35 -9
13 -9 31 -16 40 -16 8 0 15 -4 15 -9 0 -5 16 -8 36 -6 20 1 47 -3 60 -10 13
-7 36 -10 49 -7 31 6 28 11 -11 16 -75 12 -194 47 -194 58 0 10 -18 9 -44 -1z"/>
<path d="M1183 2013 c9 -2 23 -2 30 0 6 3 -1 5 -18 5 -16 0 -22 -2 -12 -5z"/>
<path d="M60 1990 c0 -19 3 -21 12 -12 9 9 9 15 0 24 -9 9 -12 7 -12 -12z"/>
<path d="M1645 1984 c-29 -31 -24 -49 14 -49 16 0 27 5 25 10 -3 6 8 18 23 27
18 12 22 18 12 18 -9 0 -28 -9 -43 -21 -32 -25 -34 -14 -4 18 12 13 16 23 9
23 -6 0 -23 -12 -36 -26z"/>
<path d="M831 1984 c0 -11 3 -14 6 -6 3 7 2 16 -1 19 -3 4 -6 -2 -5 -13z"/>
<path d="M1267 1976 c-10 -8 -15 -16 -10 -18 11 -7 54 17 46 25 -9 10 -15 8
-36 -7z"/>
<path d="M917 1964 c-8 -9 34 -54 51 -54 6 0 12 -4 12 -10 0 -5 6 -7 14 -4 7
3 16 -2 19 -10 5 -13 28 -15 141 -13 l136 2 37 39 c21 21 29 34 18 28 -11 -6
-28 -19 -39 -30 -16 -19 -28 -20 -146 -17 -93 2 -136 7 -156 19 -16 8 -37 18
-46 22 -10 3 -18 13 -18 20 0 15 -12 19 -23 8z"/>
<path d="M1210 1950 c-13 -8 -12 -10 3 -10 9 0 17 5 17 10 0 12 -1 12 -20 0z"/>
<path d="M2620 1956 c0 -11 189 -79 245 -90 6 -1 15 -5 21 -8 19 -13 114 -21
114 -10 0 5 -21 13 -47 17 -27 4 -52 10 -58 15 -5 4 -31 11 -57 14 -26 4 -51
13 -55 20 -8 13 -37 28 -63 32 -66 10 -100 14 -100 10z"/>
<path d="M1760 1889 c10 -55 29 -74 27 -25 -1 20 -5 36 -9 36 -5 0 -8 7 -8 15
0 8 -4 15 -9 15 -4 0 -5 -18 -1 -41z"/>
<path d="M1700 1891 c0 -5 9 -19 20 -32 22 -28 28 -6 6 24 -14 18 -26 22 -26
8z"/>
<path d="M1800 1891 c0 -6 5 -13 10 -16 6 -3 10 1 10 9 0 9 -4 16 -10 16 -5 0
-10 -4 -10 -9z"/>
<path d="M1351 1883 c-1 -6 -17 -21 -36 -33 -34 -21 -64 -25 -220 -33 -53 -3
-106 11 -122 32 -11 15 -12 15 -13 -2 0 -10 8 -21 18 -24 9 -4 20 -10 23 -15
3 -5 36 -11 73 -15 53 -5 70 -3 77 8 6 10 9 11 9 1 0 -9 6 -10 18 -4 9 4 35 7
57 5 41 -3 95 13 95 27 0 5 7 16 16 24 8 9 13 22 11 29 -4 8 -6 8 -6 0z"/>
<path d="M450 1866 c0 -2 7 -7 16 -10 8 -3 12 -2 9 4 -6 10 -25 14 -25 6z"/>
<path d="M2040 1846 c0 -9 4 -16 9 -16 16 0 31 -56 18 -69 -8 -8 -4 -11 16
-11 15 0 27 3 27 6 0 9 -51 94 -61 100 -5 3 -9 -2 -9 -10z"/>
<path d="M2776 1851 c-4 -5 3 -7 14 -4 23 6 26 13 6 13 -8 0 -17 -4 -20 -9z"/>
<path d="M2738 1843 c7 -3 16 -2 19 1 4 3 -2 6 -13 5 -11 0 -14 -3 -6 -6z"/>
<path d="M1976 1802 c0 -20 7 -47 15 -60 15 -24 44 -26 44 -2 0 8 4 20 8 27
10 16 -2 43 -21 43 -8 0 -23 6 -31 14 -14 13 -16 11 -15 -22z m49 -27 c0 -28
-29 -25 -33 3 -3 19 0 23 15 20 10 -2 18 -12 18 -23z"/>
<path d="M1342 1799 c-39 -36 -93 -52 -187 -55 -91 -3 -164 9 -177 29 -4 6
-10 8 -15 4 -8 -8 10 -43 20 -40 4 1 25 -4 48 -12 23 -8 58 -13 78 -10 20 2
63 7 96 9 86 6 129 27 154 74 15 27 11 28 -17 1z"/>
<path d="M540 1768 c0 -9 5 -20 11 -23 17 -11 18 -2 3 19 -12 17 -14 17 -14 4z"/>
<path d="M2790 1770 c0 -6 -5 -8 -10 -5 -13 8 -50 -4 -50 -16 0 -13 47 -11 56
2 3 6 15 9 25 6 25 -7 24 0 -1 13 -14 8 -20 8 -20 0z"/>
<path d="M1390 1750 c0 -5 5 -10 10 -10 6 0 10 5 10 10 0 6 -4 10 -10 10 -5 0
-10 -4 -10 -10z"/>
<path d="M931 1724 c0 -11 3 -14 6 -6 3 7 2 16 -1 19 -3 4 -6 -2 -5 -13z"/>
<path d="M2056 1725 c4 -9 0 -15 -9 -15 -8 0 -18 -7 -21 -16 -8 -21 -8 -24 5
-24 5 0 7 6 3 13 -5 8 -4 9 4 2 5 -5 19 -26 29 -45 12 -21 29 -36 42 -38 16
-3 21 0 16 8 -4 6 -13 9 -20 6 -17 -6 -38 93 -23 112 8 9 5 12 -10 12 -15 0
-20 -5 -16 -15z"/>
<path d="M2111 1693 c4 -27 8 -54 8 -60 1 -7 6 -13 12 -13 8 0 9 13 5 40 -6
37 6 56 17 28 4 -9 6 -7 6 3 1 17 -29 49 -46 49 -6 0 -7 -17 -2 -47z"/>
<path d="M583 1716 c9 -7 17 -18 17 -24 0 -5 7 -12 15 -16 13 -5 13 -2 -1 18
-8 14 -23 27 -32 30 -15 5 -15 5 1 -8z"/>
<path d="M1286 1703 c-37 -19 -64 -24 -117 -24 -38 0 -71 -4 -74 -9 -9 -15
-42 -12 -59 5 -8 8 -21 15 -30 15 -8 0 -18 5 -21 10 -9 15 -25 12 -25 -4 0
-16 86 -54 115 -51 140 13 176 19 216 36 26 12 50 27 53 35 7 18 2 17 -58 -13z"/>
<path d="M1760 1681 c0 -5 9 -11 21 -14 16 -4 18 -3 8 9 -13 16 -29 19 -29 5z"/>
<path d="M1290 1650 c-8 -5 -45 -14 -83 -21 -37 -7 -70 -15 -72 -19 -4 -7 -71
1 -134 15 -27 6 -33 5 -29 -6 4 -13 96 -32 143 -30 11 0 31 1 44 1 14 0 28 5
32 12 6 9 11 9 23 -1 13 -11 16 -11 16 3 0 10 9 16 25 16 14 0 25 5 25 10 0 6
6 10 14 10 8 0 18 5 21 10 8 13 -5 13 -25 0z"/>
<path d="M136 1635 c-9 -26 -7 -32 5 -12 6 10 9 21 6 23 -2 3 -7 -2 -11 -11z"/>
<path d="M940 1640 c0 -5 5 -10 11 -10 5 0 7 5 4 10 -3 6 -8 10 -11 10 -2 0
-4 -4 -4 -10z"/>
<path d="M51 1614 c0 -11 3 -14 6 -6 3 7 2 16 -1 19 -3 4 -6 -2 -5 -13z"/>
<path d="M1315 1589 c-11 -17 1 -21 15 -4 8 9 8 15 2 15 -6 0 -14 -5 -17 -11z"/>
<path d="M1510 1584 c0 -8 5 -12 10 -9 6 4 8 11 5 16 -9 14 -15 11 -15 -7z"/>
<path d="M1885 1580 c10 -11 20 -20 22 -20 2 0 -2 9 -9 20 -7 11 -17 20 -22
20 -5 0 -1 -9 9 -20z"/>
<path d="M1408 1585 c-3 -3 -29 -14 -59 -25 l-54 -19 42 -1 c23 0 45 5 49 11
4 8 9 7 16 -2 8 -11 9 -10 4 4 -4 12 0 17 14 17 11 0 20 5 20 10 0 10 -23 14
-32 5z"/>
<path d="M730 1555 c0 -8 4 -15 10 -15 5 0 7 7 4 15 -4 8 -8 15 -10 15 -2 0
-4 -7 -4 -15z"/>
<path d="M1535 1560 c-9 -15 -1 -23 21 -18 15 3 16 4 1 16 -11 9 -17 10 -22 2z"/>
<path d="M1 1534 c0 -11 3 -14 6 -6 3 7 2 16 -1 19 -3 4 -6 -2 -5 -13z"/>
<path d="M1061 1514 c0 -11 3 -14 6 -6 3 7 2 16 -1 19 -3 4 -6 -2 -5 -13z"/>
<path d="M1449 1507 c5 -5 21 -7 37 -5 27 3 26 4 -8 9 -22 3 -34 1 -29 -4z"/>
<path d="M60 1496 c0 -9 5 -16 10 -16 6 0 10 4 10 9 0 6 -4 13 -10 16 -5 3
-10 -1 -10 -9z"/>
<path d="M918 1503 c6 -2 18 -2 25 0 6 3 1 5 -13 5 -14 0 -19 -2 -12 -5z"/>
<path d="M0 1488 c0 -9 5 -20 10 -23 13 -8 13 5 0 25 -8 13 -10 13 -10 -2z"/>
<path d="M2105 1460 c-3 -5 -1 -10 4 -10 6 0 11 5 11 10 0 6 -2 10 -4 10 -3 0
-8 -4 -11 -10z"/>
<path d="M15 1390 c4 -36 11 -83 16 -105 6 -22 11 -47 12 -55 1 -8 5 -17 9
-21 4 -3 9 -19 11 -37 2 -18 7 -35 11 -40 14 -13 -6 92 -22 115 -8 13 -11 30
-8 39 3 9 2 33 -3 53 -5 20 -12 51 -15 69 -9 63 -18 47 -11 -18z"/>
<path d="M930 1423 c0 -6 -11 -14 -25 -17 -24 -6 -37 -46 -15 -46 6 0 10 9 10
20 0 11 6 20 14 20 17 0 31 18 22 27 -3 4 -6 2 -6 -4z"/>
<path d="M2081 1407 c-13 -21 -12 -21 5 -5 10 10 16 20 13 22 -3 3 -11 -5 -18
-17z"/>
<path d="M1545 1410 c-3 -5 -2 -10 4 -10 5 0 13 5 16 10 3 6 2 10 -4 10 -5 0
-13 -4 -16 -10z"/>
<path d="M1580 1409 c0 -5 5 -7 10 -4 6 3 10 8 10 11 0 2 -4 4 -10 4 -5 0 -10
-5 -10 -11z"/>
<path d="M140 1400 c0 -5 5 -10 10 -10 6 0 10 5 10 10 0 6 -4 10 -10 10 -5 0
-10 -4 -10 -10z"/>
<path d="M1700 1400 c8 -5 20 -10 25 -10 6 0 3 5 -5 10 -8 5 -19 10 -25 10 -5
0 -3 -5 5 -10z"/>
<path d="M851 1344 c0 -11 3 -14 6 -6 3 7 2 16 -1 19 -3 4 -6 -2 -5 -13z"/>
<path d="M870 1340 c0 -5 10 -10 23 -10 18 0 19 2 7 10 -19 13 -30 13 -30 0z"/>
<path d="M1990 1291 c0 -16 6 -31 15 -35 8 -3 15 -14 15 -25 0 -11 10 -26 23
-32 12 -7 25 -16 28 -22 4 -5 12 -6 18 -3 8 5 -1 20 -23 42 -19 19 -41 51 -48
70 -15 42 -28 44 -28 5z"/>
<path d="M100 1305 c0 -5 5 -17 10 -25 5 -8 10 -10 10 -5 0 6 -5 17 -10 25 -5
8 -10 11 -10 5z"/>
<path d="M171 1294 c0 -11 3 -14 6 -6 3 7 2 16 -1 19 -3 4 -6 -2 -5 -13z"/>
<path d="M1363 1285 c0 -8 4 -12 9 -9 5 3 6 10 3 15 -9 13 -12 11 -12 -6z"/>
<path d="M1640 1280 c0 -5 7 -10 15 -10 8 0 15 5 15 10 0 6 -7 10 -15 10 -8 0
-15 -4 -15 -10z"/>
<path d="M1380 1254 c0 -2 9 -8 20 -14 11 -6 20 -7 20 -2 0 6 -9 12 -20 15
-11 3 -20 3 -20 1z"/>
<path d="M211 1224 c0 -11 3 -14 6 -6 3 7 2 16 -1 19 -3 4 -6 -2 -5 -13z"/>
<path d="M1016 1232 c-4 -7 18 -41 55 -84 35 -40 66 -77 70 -83 12 -15 111
-128 126 -144 8 -7 17 -11 20 -8 3 4 -9 21 -27 39 -31 31 -169 200 -216 264
-14 19 -23 24 -28 16z"/>
<path d="M181 1194 c0 -11 3 -14 6 -6 3 7 2 16 -1 19 -3 4 -6 -2 -5 -13z"/>
<path d="M1120 1170 c0 -5 7 -7 15 -4 8 4 15 8 15 10 0 2 -7 4 -15 4 -8 0 -15
-4 -15 -10z"/>
<path d="M2112 1146 c7 -8 15 -12 17 -11 5 6 -10 25 -20 25 -5 0 -4 -6 3 -14z"/>
<path d="M692 1130 c7 -11 16 -20 20 -20 5 0 8 -7 8 -17 0 -9 3 -13 7 -10 3 4
12 -1 19 -11 7 -9 14 -12 14 -7 0 6 -13 25 -29 42 -16 18 -26 34 -23 37 3 3
-2 6 -11 6 -15 0 -15 -3 -5 -20z"/>
<path d="M855 1130 c-3 -5 -1 -10 4 -10 6 0 11 5 11 10 0 6 -2 10 -4 10 -3 0
-8 -4 -11 -10z"/>
<path d="M142 1110 c0 -14 2 -19 5 -12 2 6 2 18 0 25 -3 6 -5 1 -5 -13z"/>
<path d="M1511 1125 c-1 -15 25 -46 32 -38 12 11 8 23 -7 23 -8 0 -17 6 -19
13 -3 6 -6 8 -6 2z"/>
<path d="M74 1095 c2 -16 5 -40 5 -52 1 -13 6 -23 12 -23 8 0 9 12 4 38 -9 48
-27 80 -21 37z"/>
<path d="M2130 1099 c0 -12 29 -44 34 -38 2 2 0 14 -5 27 -9 22 -29 31 -29 11z"/>
<path d="M565 1070 c-3 -5 1 -10 10 -10 9 0 13 5 10 10 -3 6 -8 10 -10 10 -2
0 -7 -4 -10 -10z"/>
<path d="M145 1050 c3 -5 8 -10 11 -10 2 0 4 5 4 10 0 6 -5 10 -11 10 -5 0 -7
-4 -4 -10z"/>
<path d="M1470 1042 c6 -13 14 -21 18 -18 3 4 -2 14 -12 24 -18 16 -18 16 -6
-6z"/>
<path d="M1840 1043 c0 -13 29 -38 35 -31 3 3 -4 13 -15 23 -11 10 -20 13 -20
8z"/>
<path d="M1780 1013 c-13 -15 -12 -16 4 -10 10 4 25 7 34 7 15 0 15 2 2 10
-20 13 -22 12 -40 -7z"/>
<path d="M402 1000 c0 -14 2 -19 5 -12 2 6 2 18 0 25 -3 6 -5 1 -5 -13z"/>
<path d="M485 1011 c-3 -5 -1 -12 5 -16 5 -3 10 1 10 9 0 18 -6 21 -15 7z"/>
<path d="M99 1005 c-3 -5 -3 -26 0 -45 4 -19 9 -30 12 -25 3 6 3 26 0 45 -4
19 -9 31 -12 25z"/>
<path d="M320 955 c0 -14 5 -25 10 -25 6 0 10 11 10 25 0 14 -4 25 -10 25 -5
0 -10 -11 -10 -25z"/>
<path d="M2081 964 c0 -11 3 -14 6 -6 3 7 2 16 -1 19 -3 4 -6 -2 -5 -13z"/>
<path d="M1921 954 c0 -11 3 -14 6 -6 3 7 2 16 -1 19 -3 4 -6 -2 -5 -13z"/>
<path d="M2150 950 c0 -5 5 -10 11 -10 5 0 7 5 4 10 -3 6 -8 10 -11 10 -2 0
-4 -4 -4 -10z"/>
<path d="M2100 941 c0 -6 4 -13 10 -16 6 -3 7 1 4 9 -7 18 -14 21 -14 7z"/>
<path d="M100 911 c0 -6 4 -13 10 -16 6 -3 7 1 4 9 -7 18 -14 21 -14 7z"/>
<path d="M1290 903 c1 -12 29 -47 34 -42 7 7 -13 49 -24 49 -5 0 -10 -3 -10
-7z"/>
<path d="M2970 900 c0 -5 5 -10 11 -10 5 0 7 5 4 10 -3 6 -8 10 -11 10 -2 0
-4 -4 -4 -10z"/>
<path d="M200 880 c0 -5 5 -10 10 -10 6 0 10 5 10 10 0 6 -4 10 -10 10 -5 0
-10 -4 -10 -10z"/>
<path d="M113 866 c4 -10 7 -30 7 -44 0 -18 3 -23 9 -14 10 16 2 60 -12 69 -7
4 -8 0 -4 -11z"/>
<path d="M1430 876 c0 -2 8 -10 18 -17 15 -13 16 -12 3 4 -13 16 -21 21 -21
13z"/>
<path d="M150 861 c0 -5 7 -12 16 -15 22 -9 24 -8 24 9 0 8 -9 15 -20 15 -11
0 -20 -4 -20 -9z"/>
<path d="M635 862 c6 -4 19 -20 29 -35 23 -37 32 -28 11 12 -8 17 -23 31 -33
31 -10 0 -13 -3 -7 -8z"/>
<path d="M1349 857 c-9 -7 -12 -16 -7 -22 4 -6 17 -21 27 -35 11 -14 22 -22
26 -18 4 3 -2 15 -14 27 -11 11 -18 29 -16 41 4 23 5 23 -16 7z"/>
<path d="M1901 854 c0 -11 3 -14 6 -6 3 7 2 16 -1 19 -3 4 -6 -2 -5 -13z"/>
<path d="M2901 849 c-19 -16 -26 -17 -33 -7 -6 10 -10 10 -18 -2 -5 -8 -10
-23 -10 -33 0 -10 -4 -15 -10 -12 -5 3 -10 -3 -10 -13 0 -11 -7 -23 -16 -26
-8 -3 -13 -10 -10 -15 3 -5 2 -20 -3 -33 -9 -21 -10 -21 -11 -3 -1 39 -17 -4
-16 -45 1 -43 -23 -59 -25 -17 -1 17 -2 18 -6 4 -3 -10 0 -24 6 -31 13 -15 18
-67 7 -84 -4 -7 -2 -12 4 -12 8 0 11 -21 8 -65 -3 -62 -2 -65 20 -65 13 0 22
6 22 15 0 8 -5 15 -11 15 -8 0 -7 5 1 15 10 12 10 21 2 38 -21 44 -22 60 -8
127 18 84 45 139 103 208 48 56 54 73 14 41z"/>
<path d="M1991 844 c0 -11 3 -14 6 -6 3 7 2 16 -1 19 -3 4 -6 -2 -5 -13z"/>
<path d="M2170 845 c0 -8 4 -15 10 -15 5 0 7 7 4 15 -4 8 -8 15 -10 15 -2 0
-4 -7 -4 -15z"/>
<path d="M2240 840 c0 -5 5 -10 11 -10 5 0 7 5 4 10 -3 6 -8 10 -11 10 -2 0
-4 -4 -4 -10z"/>
<path d="M240 817 c0 -9 4 -18 9 -21 5 -4 8 1 7 9 -3 21 -16 31 -16 12z"/>
<path d="M2220 792 c0 -12 19 -26 26 -19 2 2 -2 10 -11 17 -9 8 -15 8 -15 2z"/>
<path d="M700 777 c0 -7 9 -13 20 -14 11 -1 20 0 20 2 0 2 -9 9 -20 15 -15 8
-20 8 -20 -3z"/>
<path d="M1410 786 c0 -2 7 -9 15 -16 9 -7 15 -8 15 -2 0 5 -7 12 -15 16 -8 3
-15 4 -15 2z"/>
<path d="M1606 767 c3 -10 9 -15 12 -12 3 3 0 11 -7 18 -10 9 -11 8 -5 -6z"/>
<path d="M1070 750 c0 -5 5 -10 11 -10 5 0 7 5 4 10 -3 6 -8 10 -11 10 -2 0
-4 -4 -4 -10z"/>
<path d="M201 734 c0 -11 3 -14 6 -6 3 7 2 16 -1 19 -3 4 -6 -2 -5 -13z"/>
<path d="M1045 730 c10 -11 20 -20 22 -20 2 0 -1 9 -7 20 -6 11 -16 20 -22 20
-6 0 -3 -9 7 -20z"/>
<path d="M1260 739 c0 -5 5 -7 10 -4 6 3 10 8 10 11 0 2 -4 4 -10 4 -5 0 -10
-5 -10 -11z"/>
<path d="M1885 740 c3 -5 8 -10 11 -10 2 0 4 5 4 10 0 6 -5 10 -11 10 -5 0 -7
-4 -4 -10z"/>
<path d="M751 724 c0 -11 3 -14 6 -6 3 7 2 16 -1 19 -3 4 -6 -2 -5 -13z"/>
<path d="M1440 718 c8 -7 27 -31 41 -53 31 -46 83 -105 93 -105 8 0 -54 94
-66 98 -4 2 -8 10 -8 19 0 19 -21 39 -50 47 -21 6 -23 5 -10 -6z"/>
<path d="M1080 712 c0 -5 7 -17 15 -28 15 -18 15 -18 8 0 -4 13 -3 17 5 12 8
-5 10 -2 6 8 -6 16 -34 22 -34 8z"/>
<path d="M281 694 c0 -11 3 -14 6 -6 3 7 2 16 -1 19 -3 4 -6 -2 -5 -13z"/>
<path d="M150 688 c1 -7 8 -24 16 -38 10 -16 13 -18 8 -5 -4 11 -6 28 -6 38 0
9 -3 17 -9 17 -5 0 -9 -6 -9 -12z"/>
<path d="M79 650 l-24 -20 28 11 c15 7 27 16 27 21 0 12 -5 10 -31 -12z"/>
<path d="M612 640 c0 -14 2 -19 5 -12 2 6 2 18 0 25 -3 6 -5 1 -5 -13z"/>
<path d="M1751 644 c0 -11 3 -14 6 -6 3 7 2 16 -1 19 -3 4 -6 -2 -5 -13z"/>
<path d="M1140 639 c0 -5 5 -7 10 -4 6 3 10 8 10 11 0 2 -4 4 -10 4 -5 0 -10
-5 -10 -11z"/>
<path d="M2291 633 c7 -12 15 -20 18 -17 3 2 -3 12 -13 22 -17 16 -18 16 -5
-5z"/>
<path d="M1781 594 c0 -11 3 -14 6 -6 3 7 2 16 -1 19 -3 4 -6 -2 -5 -13z"/>
<path d="M124 586 c-3 -8 -16 -17 -29 -20 -36 -9 -100 -49 -86 -54 6 -2 17 -2
24 1 7 2 16 5 20 5 4 1 19 10 34 21 14 12 29 18 34 15 5 -3 9 -1 9 5 0 6 11
13 25 17 14 3 25 10 25 15 0 15 -50 10 -56 -5z"/>
<path d="M1185 581 c-3 -5 -1 -12 5 -16 5 -3 10 1 10 9 0 18 -6 21 -15 7z"/>
<path d="M1712 570 c0 -14 2 -19 5 -12 2 6 2 18 0 25 -3 6 -5 1 -5 -13z"/>
<path d="M1400 569 c0 -5 5 -7 10 -4 6 3 10 8 10 11 0 2 -4 4 -10 4 -5 0 -10
-5 -10 -11z"/>
<path d="M192 550 c0 -14 2 -19 5 -12 2 6 2 18 0 25 -3 6 -5 1 -5 -13z"/>
<path d="M2350 563 c1 -12 80 -97 85 -91 7 6 -65 98 -76 98 -5 0 -9 -3 -9 -7z"/>
<path d="M1217 553 c-2 -5 2 -19 9 -33 8 -14 14 -20 14 -15 0 6 7 1 15 -9 13
-17 15 -17 15 -3 0 9 -11 24 -25 33 -14 9 -22 20 -19 25 3 5 3 9 0 9 -3 0 -7
-3 -9 -7z"/>
<path d="M404 531 c20 -22 26 -25 26 -13 0 4 -10 13 -22 21 -23 14 -23 14 -4
-8z"/>
<path d="M1671 534 c0 -11 3 -14 6 -6 3 7 2 16 -1 19 -3 4 -6 -2 -5 -13z"/>
<path d="M1760 537 c0 -9 4 -18 9 -21 5 -4 8 1 7 9 -3 21 -16 31 -16 12z"/>
<path d="M1600 527 c0 -2 12 -19 26 -38 27 -35 28 -33 5 14 -12 22 -31 37 -31
24z"/>
<path d="M351 494 c0 -11 3 -14 6 -6 3 7 2 16 -1 19 -3 4 -6 -2 -5 -13z"/>
<path d="M615 480 c3 -5 8 -10 11 -10 2 0 4 5 4 10 0 6 -5 10 -11 10 -5 0 -7
-4 -4 -10z"/>
<path d="M1085 480 c3 -5 8 -10 11 -10 2 0 4 5 4 10 0 6 -5 10 -11 10 -5 0 -7
-4 -4 -10z"/>
<path d="M138 473 c7 -3 16 -2 19 1 4 3 -2 6 -13 5 -11 0 -14 -3 -6 -6z"/>
<path d="M2845 460 c10 -11 20 -20 23 -20 3 0 -3 9 -13 20 -10 11 -20 20 -23
20 -3 0 3 -9 13 -20z"/>
<path d="M64 455 c-4 -8 -10 -13 -14 -10 -4 3 -10 -2 -14 -10 -8 -21 -1 -19
30 10 15 14 22 25 15 25 -6 0 -14 -7 -17 -15z"/>
<path d="M1667 454 c-3 -3 1 -13 9 -21 8 -9 18 -12 21 -9 4 4 0 13 -8 21 -8 9
-18 13 -22 9z"/>
<path d="M2905 450 c3 -5 8 -10 11 -10 2 0 4 5 4 10 0 6 -5 10 -11 10 -5 0 -7
-4 -4 -10z"/>
<path d="M700 442 c0 -7 4 -12 9 -12 5 0 11 -8 13 -17 2 -12 6 -14 10 -7 4 6
-1 19 -12 29 -12 10 -20 13 -20 7z"/>
<path d="M240 434 c0 -14 27 -50 33 -44 3 3 -3 16 -13 30 -11 14 -20 20 -20
14z"/>
<path d="M2814 429 c-4 -7 1 -16 10 -21 9 -5 23 -22 31 -38 9 -17 21 -30 28
-30 7 0 21 -15 32 -32 10 -18 30 -44 44 -57 14 -13 20 -20 14 -17 -7 4 -13 2
-13 -3 0 -13 10 -14 29 -2 18 12 6 30 -84 126 -36 38 -65 73 -65 77 0 12 -18
9 -26 -3z"/>
<path d="M1316 421 c-3 -5 1 -14 9 -21 13 -10 15 -9 15 9 0 21 -14 28 -24 12z"/>
<path d="M1042 390 c0 -14 2 -19 5 -12 2 6 2 18 0 25 -3 6 -5 1 -5 -13z"/>
<path d="M1700 400 c0 -5 5 -10 10 -10 6 0 10 5 10 10 0 6 -4 10 -10 10 -5 0
-10 -4 -10 -10z"/>
<path d="M1370 355 c25 -26 40 -32 40 -15 0 6 -7 10 -15 10 -8 0 -15 7 -15 15
0 8 -8 15 -17 15 -14 0 -12 -4 7 -25z"/>
<path d="M2934 364 c9 -8 16 -20 16 -25 0 -5 6 -9 14 -9 8 0 17 -6 19 -12 3
-8 6 -9 6 -2 1 13 -48 64 -61 64 -5 0 -2 -7 6 -16z"/>
<path d="M2741 347 c-2 -27 27 -53 42 -38 9 9 6 13 -10 17 -12 3 -24 13 -26
23 -4 13 -5 13 -6 -2z"/>
<path d="M260 336 c0 -8 4 -17 9 -20 5 -4 7 3 4 14 -6 23 -13 26 -13 6z"/>
<path d="M1752 338 c2 -6 15 -18 29 -27 l24 -15 -24 27 c-26 29 -35 34 -29 15z"/>
<path d="M11 314 c0 -11 3 -14 6 -6 3 7 2 16 -1 19 -3 4 -6 -2 -5 -13z"/>
<path d="M767 310 c3 -11 7 -20 9 -20 2 0 4 9 4 20 0 11 -4 20 -9 20 -5 0 -7
-9 -4 -20z"/>
<path d="M1310 301 c0 -6 5 -13 10 -16 6 -3 10 1 10 9 0 9 -4 16 -10 16 -5 0
-10 -4 -10 -9z"/>
<path d="M2790 295 c0 -22 82 -80 138 -96 34 -11 27 -4 -30 29 -29 16 -62 39
-72 51 -18 19 -36 28 -36 16z"/>
<path d="M790 279 c0 -5 5 -7 10 -4 6 3 10 8 10 11 0 2 -4 4 -10 4 -5 0 -10
-5 -10 -11z"/>
<path d="M1477 271 c7 -27 63 -89 63 -70 0 9 -9 24 -20 34 -11 10 -20 24 -20
30 0 7 -6 15 -14 18 -9 4 -12 0 -9 -12z"/>
<path d="M1125 270 c-3 -5 -1 -10 4 -10 6 0 11 5 11 10 0 6 -2 10 -4 10 -3 0
-8 -4 -11 -10z"/>
<path d="M1615 270 c-3 -5 -1 -10 4 -10 6 0 11 5 11 10 0 6 -2 10 -4 10 -3 0
-8 -4 -11 -10z"/>
<path d="M1340 256 c0 -9 5 -16 10 -16 6 0 10 4 10 9 0 6 -4 13 -10 16 -5 3
-10 -1 -10 -9z"/>
<path d="M1140 230 c0 -5 5 -10 10 -10 6 0 10 5 10 10 0 6 -4 10 -10 10 -5 0
-10 -4 -10 -10z"/>
<path d="M1872 195 c15 -14 32 -25 38 -25 18 0 2 18 -33 35 l-32 16 27 -26z"/>
<path d="M1392 190 c14 -22 24 -19 15 5 -4 8 -11 15 -17 15 -6 0 -6 -7 2 -20z"/>
<path d="M830 190 c0 -5 5 -10 11 -10 5 0 7 5 4 10 -3 6 -8 10 -11 10 -2 0 -4
-4 -4 -10z"/>
<path d="M1176 192 c-2 -4 4 -13 15 -20 22 -14 25 -7 5 14 -8 8 -17 11 -20 6z"/>
<path d="M1245 190 c-3 -5 -1 -10 4 -10 6 0 11 5 11 10 0 6 -2 10 -4 10 -3 0
-8 -4 -11 -10z"/>
<path d="M1557 183 c-4 -3 -7 -11 -7 -17 0 -6 5 -5 12 2 6 6 9 14 7 17 -3 3
-9 2 -12 -2z"/>
<path d="M2830 166 c0 -9 5 -16 10 -16 6 0 10 4 10 9 0 6 -4 13 -10 16 -5 3
-10 -1 -10 -9z"/>
<path d="M861 154 c30 -37 81 -88 74 -74 -17 30 -69 90 -78 90 -5 0 -4 -7 4
-16z"/>
<path d="M1920 157 c0 -2 11 -17 25 -33 14 -16 25 -32 25 -36 0 -5 5 -8 11 -8
14 0 -19 54 -42 68 -11 7 -19 11 -19 9z"/>
<path d="M2760 143 c0 -5 11 -20 25 -33 14 -13 25 -19 25 -13 0 5 -11 20 -25
33 -14 13 -25 19 -25 13z"/>
<path d="M2865 141 c-3 -5 -1 -12 5 -16 5 -3 10 1 10 9 0 18 -6 21 -15 7z"/>
<path d="M31 112 c-1 -18 48 -112 59 -112 5 0 2 12 -6 28 -7 15 -14 32 -14 39
0 7 -6 16 -14 20 -7 4 -16 15 -19 23 -3 10 -6 11 -6 2z"/>
<path d="M1607 93 c21 -34 62 -78 67 -72 7 8 -59 99 -72 99 -9 0 -8 -7 5 -27z"/>
<path d="M2890 110 c0 -10 85 -50 104 -49 6 0 -8 9 -30 19 -23 10 -45 23 -48
29 -9 14 -26 14 -26 1z"/>
<path d="M970 80 c0 -5 5 -10 10 -10 6 0 10 5 10 10 0 6 -4 10 -10 10 -5 0
-10 -4 -10 -10z"/>
<path d="M1091 74 c0 -11 3 -14 6 -6 3 7 2 16 -1 19 -3 4 -6 -2 -5 -13z"/>
<path d="M2438 83 c7 -3 16 -2 19 1 4 3 -2 6 -13 5 -11 0 -14 -3 -6 -6z"/>
<path d="M2820 70 c0 -5 5 -10 10 -10 6 0 10 5 10 10 0 6 -4 10 -10 10 -5 0
-10 -4 -10 -10z"/>
<path d="M277 63 c-3 -5 1 -14 9 -21 12 -10 14 -10 14 2 0 17 -16 30 -23 19z"/>
<path d="M2330 51 c16 -30 28 -33 22 -6 -2 14 -11 25 -19 25 -10 0 -11 -4 -3
-19z"/>
<path d="M1000 56 c0 -4 9 -19 20 -33 13 -17 20 -20 20 -11 0 8 -9 23 -20 33
-11 10 -20 15 -20 11z"/>
<path d="M1290 50 c0 -5 5 -10 10 -10 6 0 10 5 10 10 0 6 -4 10 -10 10 -5 0
-10 -4 -10 -10z"/>
<path d="M2410 51 c0 -6 4 -13 10 -16 6 -3 7 1 4 9 -7 18 -14 21 -14 7z"/>
<path d="M951 34 c0 -11 3 -14 6 -6 3 7 2 16 -1 19 -3 4 -6 -2 -5 -13z"/>
<path d="M1820 30 c0 -5 5 -10 11 -10 5 0 7 5 4 10 -3 6 -8 10 -11 10 -2 0 -4
-4 -4 -10z"/>
<path d="M1320 10 c0 -5 5 -10 11 -10 5 0 7 5 4 10 -3 6 -8 10 -11 10 -2 0 -4
-4 -4 -10z"/>
</g>
</svg>
